<svg width="165" height="34" viewBox="0 0 165 34" fill="none" xmlns="http://www.w3.org/2000/svg">
<path d="M22.2386 9H19.0682C18.8807 8.08807 18.5526 7.28693 18.0838 6.59659C17.6236 5.90625 17.0611 5.3267 16.3963 4.85795C15.7401 4.38068 15.0114 4.02273 14.2102 3.78409C13.4091 3.54545 12.5739 3.42614 11.7045 3.42614C10.1193 3.42614 8.68324 3.8267 7.39631 4.62784C6.1179 5.42898 5.09943 6.60938 4.34091 8.16903C3.59091 9.72869 3.21591 11.642 3.21591 13.9091C3.21591 16.1761 3.59091 18.0895 4.34091 19.6491C5.09943 21.2088 6.1179 22.3892 7.39631 23.1903C8.68324 23.9915 10.1193 24.392 11.7045 24.392C12.5739 24.392 13.4091 24.2727 14.2102 24.0341C15.0114 23.7955 15.7401 23.4418 16.3963 22.973C17.0611 22.4957 17.6236 21.9119 18.0838 21.2216C18.5526 20.5227 18.8807 19.7216 19.0682 18.8182H22.2386C22 20.1562 21.5653 21.3537 20.9347 22.4105C20.304 23.4673 19.5199 24.3665 18.5824 25.108C17.6449 25.8409 16.5923 26.3991 15.4247 26.7827C14.2656 27.1662 13.0256 27.358 11.7045 27.358C9.47159 27.358 7.4858 26.8125 5.74716 25.7216C4.00852 24.6307 2.64063 23.0795 1.64347 21.0682C0.646307 19.0568 0.147727 16.6705 0.147727 13.9091C0.147727 11.1477 0.646307 8.76136 1.64347 6.75C2.64063 4.73864 4.00852 3.1875 5.74716 2.09659C7.4858 1.00568 9.47159 0.460226 11.7045 0.460226C13.0256 0.460226 14.2656 0.651988 15.4247 1.03551C16.5923 1.41903 17.6449 1.98153 18.5824 2.72301C19.5199 3.45596 20.304 4.35085 20.9347 5.40767C21.5653 6.45596 22 7.65341 22.2386 9ZM48.8903 27V10.125H43.6744C42.4982 10.125 41.5735 10.3977 40.9002 10.9432C40.2269 11.4886 39.8903 12.2386 39.8903 13.1932C39.8903 14.1307 40.1928 14.8679 40.7979 15.4048C41.4116 15.9418 42.2511 16.2102 43.3164 16.2102H49.6573V19.0227H43.3164C41.9869 19.0227 40.8406 18.7884 39.8775 18.3196C38.9144 17.8509 38.1729 17.1818 37.6531 16.3125C37.1332 15.4347 36.8732 14.3949 36.8732 13.1932C36.8732 11.983 37.146 10.9432 37.6914 10.0739C38.2369 9.20454 39.0167 8.53551 40.0309 8.06676C41.0536 7.59801 42.2681 7.36364 43.6744 7.36364H51.7539V27H48.8903ZM35.7994 27L41.3732 17.233H44.646L39.0721 27H35.7994ZM60.3097 22.5511L69.7699 7.36364H73.2472V27H70.2301V11.8125L60.821 27H57.2926V7.36364H60.3097V22.5511ZM67.7756 0.818181H70.5881C70.5881 2.19886 70.1108 3.32812 69.1562 4.20597C68.2017 5.08381 66.9063 5.52273 65.2699 5.52273C63.6591 5.52273 62.3764 5.08381 61.4219 4.20597C60.4759 3.32812 60.0028 2.19886 60.0028 0.818181H62.8153C62.8153 1.48295 62.9986 2.06676 63.3651 2.5696C63.7401 3.07244 64.375 3.32386 65.2699 3.32386C66.1648 3.32386 66.804 3.07244 67.1875 2.5696C67.5795 2.06676 67.7756 1.48295 67.7756 0.818181ZM94.2163 7.36364V24.1875H96.9776V33.3409H93.9606V27H78.7731V7.36364H81.7901V24.1875H91.1992V7.36364H94.2163ZM107.403 27.4602C106.159 27.4602 105.029 27.2259 104.015 26.7571C103.001 26.2798 102.196 25.5938 101.599 24.6989C101.002 23.7955 100.704 22.7045 100.704 21.4261C100.704 20.3011 100.926 19.3892 101.369 18.6903C101.812 17.983 102.404 17.429 103.146 17.0284C103.887 16.6278 104.706 16.3295 105.6 16.1335C106.504 15.929 107.412 15.767 108.324 15.6477C109.517 15.4943 110.484 15.3793 111.225 15.3026C111.975 15.2173 112.521 15.0767 112.862 14.8807C113.211 14.6847 113.386 14.3437 113.386 13.858V13.7557C113.386 12.4943 113.041 11.5142 112.35 10.8153C111.669 10.1165 110.633 9.76705 109.244 9.76705C107.804 9.76705 106.674 10.0824 105.856 10.7131C105.038 11.3437 104.463 12.017 104.13 12.733L101.267 11.7102C101.778 10.517 102.46 9.58807 103.312 8.9233C104.173 8.25 105.11 7.78125 106.125 7.51705C107.147 7.24432 108.153 7.10795 109.142 7.10795C109.772 7.10795 110.497 7.18466 111.315 7.33807C112.142 7.48295 112.939 7.78551 113.706 8.24574C114.481 8.70597 115.125 9.40057 115.636 10.3295C116.147 11.2585 116.403 12.5028 116.403 14.0625V27H113.386V24.3409H113.233C113.028 24.767 112.687 25.223 112.21 25.7088C111.733 26.1946 111.098 26.608 110.305 26.9489C109.512 27.2898 108.545 27.4602 107.403 27.4602ZM107.863 24.75C109.056 24.75 110.062 24.5156 110.88 24.0469C111.707 23.5781 112.329 22.973 112.747 22.2315C113.173 21.4901 113.386 20.7102 113.386 19.892V17.1307C113.258 17.2841 112.977 17.4247 112.542 17.5526C112.116 17.6719 111.622 17.7784 111.059 17.8722C110.505 17.9574 109.964 18.0341 109.436 18.1023C108.916 18.1619 108.494 18.2131 108.17 18.2557C107.386 18.358 106.653 18.5241 105.971 18.7543C105.298 18.9759 104.752 19.3125 104.335 19.7642C103.926 20.2074 103.721 20.8125 103.721 21.5795C103.721 22.6278 104.109 23.4205 104.885 23.9574C105.669 24.4858 106.662 24.75 107.863 24.75ZM132.648 22.9091L139.501 7.36364H142.364L133.876 27H131.421L123.086 7.36364H125.898L132.648 22.9091ZM124.927 7.36364V27H121.91V7.36364H124.927ZM140.37 27V7.36364H143.387V27H140.37ZM151.927 22.5511L161.387 7.36364H164.864V27H161.847V11.8125L152.438 27H148.91V7.36364H151.927V22.5511Z" fill="white"/>
</svg>
